<?xml version="1.0" encoding="UTF-8"?>
<svg width="1800.2" height="648.69" version="1.1" viewBox="0 0 476.3 171.63" xmlns="http://www.w3.org/2000/svg" xmlns:cc="http://creativecommons.org/ns#" xmlns:dc="http://purl.org/dc/elements/1.1/" xmlns:rdf="http://www.w3.org/1999/02/22-rdf-syntax-ns#">
 <metadata>
  <rdf:RDF>
   <cc:Work rdf:about="">
    <dc:format>image/svg+xml</dc:format>
    <dc:type rdf:resource="http://purl.org/dc/dcmitype/StillImage"/>
    <dc:title/>
   </cc:Work>
  </rdf:RDF>
 </metadata>
 <g transform="translate(-10.612 -84.12)" fill="#a1a6ea">
  <g transform="matrix(.72494 0 0 .72494 95.658 157.55)">
   <path d="m58.656 0-58.656 33.867v67.732l58.656 33.867 58.658-33.867v-67.732zm0 9.5234 50.41 29.103v58.213l-50.41 29.103-50.408-29.105v-58.211z" color="#000000" color-rendering="auto" dominant-baseline="auto" image-rendering="auto" shape-rendering="auto" solid-color="#000000" stop-color="#000000" style="font-feature-settings:normal;font-variant-alternates:normal;font-variant-caps:normal;font-variant-east-asian:normal;font-variant-ligatures:normal;font-variant-numeric:normal;font-variant-position:normal;font-variation-settings:normal;inline-size:0;isolation:auto;mix-blend-mode:normal;shape-margin:0;shape-padding:0;text-decoration-color:#000000;text-decoration-line:none;text-decoration-style:solid;text-indent:0;text-orientation:mixed;text-transform:none;white-space:normal"/>
   <path d="m58.656 7.4223 50.41 29.103v8.4667l-50.41 29.104-50.408-29.104v-8.4665z" stroke-linecap="round" stroke-linejoin="round" stroke-width="4.865"/>
   <path d="m58.656-1e-6 -58.656 33.867v7.8919l58.656 32.337 58.658-32.244v-7.9854zm2.9e-5 9.5234 50.026 27.222-50.026 28.884-50.026-28.884z" color="#000000" color-rendering="auto" dominant-baseline="auto" image-rendering="auto" shape-rendering="auto" solid-color="#000000" stop-color="#000000" style="font-feature-settings:normal;font-variant-alternates:normal;font-variant-caps:normal;font-variant-east-asian:normal;font-variant-ligatures:normal;font-variant-numeric:normal;font-variant-position:normal;font-variation-settings:normal;inline-size:0;isolation:auto;mix-blend-mode:normal;paint-order:normal;shape-margin:0;shape-padding:0;text-decoration-color:#000000;text-decoration-line:none;text-decoration-style:solid;text-indent:0;text-orientation:mixed;text-transform:none;white-space:normal"/>
   <rect x="54.556" y="74.097" width="8.2021" height="55.559" style="paint-order:normal"/>
   <path d="m58.656 8.4667-58.656 33.867v7.8919l58.656 32.337 58.658-32.244v-7.9854zm2.9e-5 9.5234 50.026 27.222-50.026 28.884-50.026-28.884z" color="#000000" color-rendering="auto" dominant-baseline="auto" image-rendering="auto" shape-rendering="auto" solid-color="#000000" stop-color="#000000" style="font-feature-settings:normal;font-variant-alternates:normal;font-variant-caps:normal;font-variant-east-asian:normal;font-variant-ligatures:normal;font-variant-numeric:normal;font-variant-position:normal;font-variation-settings:normal;inline-size:0;isolation:auto;mix-blend-mode:normal;paint-order:normal;shape-margin:0;shape-padding:0;text-decoration-color:#000000;text-decoration-line:none;text-decoration-style:solid;text-indent:0;text-orientation:mixed;text-transform:none;white-space:normal"/>
   <path d="m58.656 8.4667-58.656 33.867v7.8919l58.656 32.337 58.658-32.244v-7.9854zm2.9e-5 9.5234 50.026 27.222-50.026 28.884-50.026-28.884z" color="#000000" color-rendering="auto" dominant-baseline="auto" image-rendering="auto" shape-rendering="auto" solid-color="#000000" stop-color="#000000" style="font-feature-settings:normal;font-variant-alternates:normal;font-variant-caps:normal;font-variant-east-asian:normal;font-variant-ligatures:normal;font-variant-numeric:normal;font-variant-position:normal;font-variation-settings:normal;inline-size:0;isolation:auto;mix-blend-mode:normal;paint-order:normal;shape-margin:0;shape-padding:0;text-decoration-color:#000000;text-decoration-line:none;text-decoration-style:solid;text-indent:0;text-orientation:mixed;text-transform:none;white-space:normal"/>
  </g>
  <g transform="matrix(.18849 0 0 .18849 149.24 200.76)">
   <path d="m58.656 0-58.656 33.867v67.732l58.656 33.867 58.658-33.867v-67.732zm0 9.5234 50.41 29.103v58.213l-50.41 29.103-50.408-29.105v-58.211z" color="#000000" color-rendering="auto" dominant-baseline="auto" image-rendering="auto" shape-rendering="auto" solid-color="#000000" stop-color="#000000" style="font-feature-settings:normal;font-variant-alternates:normal;font-variant-caps:normal;font-variant-east-asian:normal;font-variant-ligatures:normal;font-variant-numeric:normal;font-variant-position:normal;font-variation-settings:normal;inline-size:0;isolation:auto;mix-blend-mode:normal;shape-margin:0;shape-padding:0;text-decoration-color:#000000;text-decoration-line:none;text-decoration-style:solid;text-indent:0;text-orientation:mixed;text-transform:none;white-space:normal"/>
   <path d="m58.656 7.4223 50.41 29.103v8.4667l-50.41 29.104-50.408-29.104v-8.4665z" stroke-linecap="round" stroke-linejoin="round" stroke-width="4.865"/>
   <path d="m58.656-1e-6 -58.656 33.867v7.8919l58.656 32.337 58.658-32.244v-7.9854zm2.9e-5 9.5234 50.026 27.222-50.026 28.884-50.026-28.884z" color="#000000" color-rendering="auto" dominant-baseline="auto" image-rendering="auto" shape-rendering="auto" solid-color="#000000" stop-color="#000000" style="font-feature-settings:normal;font-variant-alternates:normal;font-variant-caps:normal;font-variant-east-asian:normal;font-variant-ligatures:normal;font-variant-numeric:normal;font-variant-position:normal;font-variation-settings:normal;inline-size:0;isolation:auto;mix-blend-mode:normal;paint-order:normal;shape-margin:0;shape-padding:0;text-decoration-color:#000000;text-decoration-line:none;text-decoration-style:solid;text-indent:0;text-orientation:mixed;text-transform:none;white-space:normal"/>
   <rect x="54.556" y="74.097" width="8.2021" height="55.559" style="paint-order:normal"/>
   <path d="m58.656 8.4667-58.656 33.867v7.8919l58.656 32.337 58.658-32.244v-7.9854zm2.9e-5 9.5234 50.026 27.222-50.026 28.884-50.026-28.884z" color="#000000" color-rendering="auto" dominant-baseline="auto" image-rendering="auto" shape-rendering="auto" solid-color="#000000" stop-color="#000000" style="font-feature-settings:normal;font-variant-alternates:normal;font-variant-caps:normal;font-variant-east-asian:normal;font-variant-ligatures:normal;font-variant-numeric:normal;font-variant-position:normal;font-variation-settings:normal;inline-size:0;isolation:auto;mix-blend-mode:normal;paint-order:normal;shape-margin:0;shape-padding:0;text-decoration-color:#000000;text-decoration-line:none;text-decoration-style:solid;text-indent:0;text-orientation:mixed;text-transform:none;white-space:normal"/>
   <path d="m58.656 8.4667-58.656 33.867v7.8919l58.656 32.337 58.658-32.244v-7.9854zm2.9e-5 9.5234 50.026 27.222-50.026 28.884-50.026-28.884z" color="#000000" color-rendering="auto" dominant-baseline="auto" image-rendering="auto" shape-rendering="auto" solid-color="#000000" stop-color="#000000" style="font-feature-settings:normal;font-variant-alternates:normal;font-variant-caps:normal;font-variant-east-asian:normal;font-variant-ligatures:normal;font-variant-numeric:normal;font-variant-position:normal;font-variation-settings:normal;inline-size:0;isolation:auto;mix-blend-mode:normal;paint-order:normal;shape-margin:0;shape-padding:0;text-decoration-color:#000000;text-decoration-line:none;text-decoration-style:solid;text-indent:0;text-orientation:mixed;text-transform:none;white-space:normal"/>
  </g>
  <g transform="matrix(.18849 0 0 .18849 149.24 213.14)">
   <path d="m58.656 0-58.656 33.867v67.732l58.656 33.867 58.658-33.867v-67.732zm0 9.5234 50.41 29.103v58.213l-50.41 29.103-50.408-29.105v-58.211z" color="#000000" color-rendering="auto" dominant-baseline="auto" image-rendering="auto" shape-rendering="auto" solid-color="#000000" stop-color="#000000" style="font-feature-settings:normal;font-variant-alternates:normal;font-variant-caps:normal;font-variant-east-asian:normal;font-variant-ligatures:normal;font-variant-numeric:normal;font-variant-position:normal;font-variation-settings:normal;inline-size:0;isolation:auto;mix-blend-mode:normal;shape-margin:0;shape-padding:0;text-decoration-color:#000000;text-decoration-line:none;text-decoration-style:solid;text-indent:0;text-orientation:mixed;text-transform:none;white-space:normal"/>
   <path d="m58.656 7.4223 50.41 29.103v8.4667l-50.41 29.104-50.408-29.104v-8.4665z" stroke-linecap="round" stroke-linejoin="round" stroke-width="4.865"/>
   <path d="m58.656-1e-6 -58.656 33.867v7.8919l58.656 32.337 58.658-32.244v-7.9854zm2.9e-5 9.5234 50.026 27.222-50.026 28.884-50.026-28.884z" color="#000000" color-rendering="auto" dominant-baseline="auto" image-rendering="auto" shape-rendering="auto" solid-color="#000000" stop-color="#000000" style="font-feature-settings:normal;font-variant-alternates:normal;font-variant-caps:normal;font-variant-east-asian:normal;font-variant-ligatures:normal;font-variant-numeric:normal;font-variant-position:normal;font-variation-settings:normal;inline-size:0;isolation:auto;mix-blend-mode:normal;paint-order:normal;shape-margin:0;shape-padding:0;text-decoration-color:#000000;text-decoration-line:none;text-decoration-style:solid;text-indent:0;text-orientation:mixed;text-transform:none;white-space:normal"/>
   <rect x="54.556" y="74.097" width="8.2021" height="55.559" style="paint-order:normal"/>
   <path d="m58.656 8.4667-58.656 33.867v7.8919l58.656 32.337 58.658-32.244v-7.9854zm2.9e-5 9.5234 50.026 27.222-50.026 28.884-50.026-28.884z" color="#000000" color-rendering="auto" dominant-baseline="auto" image-rendering="auto" shape-rendering="auto" solid-color="#000000" stop-color="#000000" style="font-feature-settings:normal;font-variant-alternates:normal;font-variant-caps:normal;font-variant-east-asian:normal;font-variant-ligatures:normal;font-variant-numeric:normal;font-variant-position:normal;font-variation-settings:normal;inline-size:0;isolation:auto;mix-blend-mode:normal;paint-order:normal;shape-margin:0;shape-padding:0;text-decoration-color:#000000;text-decoration-line:none;text-decoration-style:solid;text-indent:0;text-orientation:mixed;text-transform:none;white-space:normal"/>
   <path d="m58.656 8.4667-58.656 33.867v7.8919l58.656 32.337 58.658-32.244v-7.9854zm2.9e-5 9.5234 50.026 27.222-50.026 28.884-50.026-28.884z" color="#000000" color-rendering="auto" dominant-baseline="auto" image-rendering="auto" shape-rendering="auto" solid-color="#000000" stop-color="#000000" style="font-feature-settings:normal;font-variant-alternates:normal;font-variant-caps:normal;font-variant-east-asian:normal;font-variant-ligatures:normal;font-variant-numeric:normal;font-variant-position:normal;font-variation-settings:normal;inline-size:0;isolation:auto;mix-blend-mode:normal;paint-order:normal;shape-margin:0;shape-padding:0;text-decoration-color:#000000;text-decoration-line:none;text-decoration-style:solid;text-indent:0;text-orientation:mixed;text-transform:none;white-space:normal"/>
  </g>
  <g transform="matrix(.18849 0 0 .18849 138.18 219.12)">
   <path d="m58.656 0-58.656 33.867v67.732l58.656 33.867 58.658-33.867v-67.732zm0 9.5234 50.41 29.103v58.213l-50.41 29.103-50.408-29.105v-58.211z" color="#000000" color-rendering="auto" dominant-baseline="auto" image-rendering="auto" shape-rendering="auto" solid-color="#000000" stop-color="#000000" style="font-feature-settings:normal;font-variant-alternates:normal;font-variant-caps:normal;font-variant-east-asian:normal;font-variant-ligatures:normal;font-variant-numeric:normal;font-variant-position:normal;font-variation-settings:normal;inline-size:0;isolation:auto;mix-blend-mode:normal;shape-margin:0;shape-padding:0;text-decoration-color:#000000;text-decoration-line:none;text-decoration-style:solid;text-indent:0;text-orientation:mixed;text-transform:none;white-space:normal"/>
   <path d="m58.656 7.4223 50.41 29.103v8.4667l-50.41 29.104-50.408-29.104v-8.4665z" stroke-linecap="round" stroke-linejoin="round" stroke-width="4.865"/>
   <path d="m58.656-1e-6 -58.656 33.867v7.8919l58.656 32.337 58.658-32.244v-7.9854zm2.9e-5 9.5234 50.026 27.222-50.026 28.884-50.026-28.884z" color="#000000" color-rendering="auto" dominant-baseline="auto" image-rendering="auto" shape-rendering="auto" solid-color="#000000" stop-color="#000000" style="font-feature-settings:normal;font-variant-alternates:normal;font-variant-caps:normal;font-variant-east-asian:normal;font-variant-ligatures:normal;font-variant-numeric:normal;font-variant-position:normal;font-variation-settings:normal;inline-size:0;isolation:auto;mix-blend-mode:normal;paint-order:normal;shape-margin:0;shape-padding:0;text-decoration-color:#000000;text-decoration-line:none;text-decoration-style:solid;text-indent:0;text-orientation:mixed;text-transform:none;white-space:normal"/>
   <rect x="54.556" y="74.097" width="8.2021" height="55.559" style="paint-order:normal"/>
   <path d="m58.656 8.4667-58.656 33.867v7.8919l58.656 32.337 58.658-32.244v-7.9854zm2.9e-5 9.5234 50.026 27.222-50.026 28.884-50.026-28.884z" color="#000000" color-rendering="auto" dominant-baseline="auto" image-rendering="auto" shape-rendering="auto" solid-color="#000000" stop-color="#000000" style="font-feature-settings:normal;font-variant-alternates:normal;font-variant-caps:normal;font-variant-east-asian:normal;font-variant-ligatures:normal;font-variant-numeric:normal;font-variant-position:normal;font-variation-settings:normal;inline-size:0;isolation:auto;mix-blend-mode:normal;paint-order:normal;shape-margin:0;shape-padding:0;text-decoration-color:#000000;text-decoration-line:none;text-decoration-style:solid;text-indent:0;text-orientation:mixed;text-transform:none;white-space:normal"/>
   <path d="m58.656 8.4667-58.656 33.867v7.8919l58.656 32.337 58.658-32.244v-7.9854zm2.9e-5 9.5234 50.026 27.222-50.026 28.884-50.026-28.884z" color="#000000" color-rendering="auto" dominant-baseline="auto" image-rendering="auto" shape-rendering="auto" solid-color="#000000" stop-color="#000000" style="font-feature-settings:normal;font-variant-alternates:normal;font-variant-caps:normal;font-variant-east-asian:normal;font-variant-ligatures:normal;font-variant-numeric:normal;font-variant-position:normal;font-variation-settings:normal;inline-size:0;isolation:auto;mix-blend-mode:normal;paint-order:normal;shape-margin:0;shape-padding:0;text-decoration-color:#000000;text-decoration-line:none;text-decoration-style:solid;text-indent:0;text-orientation:mixed;text-transform:none;white-space:normal"/>
  </g>
  <g transform="matrix(.18849 0 0 .18849 127.12 225.11)">
   <path d="m58.656 0-58.656 33.867v67.732l58.656 33.867 58.658-33.867v-67.732zm0 9.5234 50.41 29.103v58.213l-50.41 29.103-50.408-29.105v-58.211z" color="#000000" color-rendering="auto" dominant-baseline="auto" image-rendering="auto" shape-rendering="auto" solid-color="#000000" stop-color="#000000" style="font-feature-settings:normal;font-variant-alternates:normal;font-variant-caps:normal;font-variant-east-asian:normal;font-variant-ligatures:normal;font-variant-numeric:normal;font-variant-position:normal;font-variation-settings:normal;inline-size:0;isolation:auto;mix-blend-mode:normal;shape-margin:0;shape-padding:0;text-decoration-color:#000000;text-decoration-line:none;text-decoration-style:solid;text-indent:0;text-orientation:mixed;text-transform:none;white-space:normal"/>
   <path d="m58.656 7.4223 50.41 29.103v8.4667l-50.41 29.104-50.408-29.104v-8.4665z" stroke-linecap="round" stroke-linejoin="round" stroke-width="4.865"/>
   <path d="m58.656-1e-6 -58.656 33.867v7.8919l58.656 32.337 58.658-32.244v-7.9854zm2.9e-5 9.5234 50.026 27.222-50.026 28.884-50.026-28.884z" color="#000000" color-rendering="auto" dominant-baseline="auto" image-rendering="auto" shape-rendering="auto" solid-color="#000000" stop-color="#000000" style="font-feature-settings:normal;font-variant-alternates:normal;font-variant-caps:normal;font-variant-east-asian:normal;font-variant-ligatures:normal;font-variant-numeric:normal;font-variant-position:normal;font-variation-settings:normal;inline-size:0;isolation:auto;mix-blend-mode:normal;paint-order:normal;shape-margin:0;shape-padding:0;text-decoration-color:#000000;text-decoration-line:none;text-decoration-style:solid;text-indent:0;text-orientation:mixed;text-transform:none;white-space:normal"/>
   <rect x="54.556" y="74.097" width="8.2021" height="55.559" style="paint-order:normal"/>
   <path d="m58.656 8.4667-58.656 33.867v7.8919l58.656 32.337 58.658-32.244v-7.9854zm2.9e-5 9.5234 50.026 27.222-50.026 28.884-50.026-28.884z" color="#000000" color-rendering="auto" dominant-baseline="auto" image-rendering="auto" shape-rendering="auto" solid-color="#000000" stop-color="#000000" style="font-feature-settings:normal;font-variant-alternates:normal;font-variant-caps:normal;font-variant-east-asian:normal;font-variant-ligatures:normal;font-variant-numeric:normal;font-variant-position:normal;font-variation-settings:normal;inline-size:0;isolation:auto;mix-blend-mode:normal;paint-order:normal;shape-margin:0;shape-padding:0;text-decoration-color:#000000;text-decoration-line:none;text-decoration-style:solid;text-indent:0;text-orientation:mixed;text-transform:none;white-space:normal"/>
   <path d="m58.656 8.4667-58.656 33.867v7.8919l58.656 32.337 58.658-32.244v-7.9854zm2.9e-5 9.5234 50.026 27.222-50.026 28.884-50.026-28.884z" color="#000000" color-rendering="auto" dominant-baseline="auto" image-rendering="auto" shape-rendering="auto" solid-color="#000000" stop-color="#000000" style="font-feature-settings:normal;font-variant-alternates:normal;font-variant-caps:normal;font-variant-east-asian:normal;font-variant-ligatures:normal;font-variant-numeric:normal;font-variant-position:normal;font-variation-settings:normal;inline-size:0;isolation:auto;mix-blend-mode:normal;paint-order:normal;shape-margin:0;shape-padding:0;text-decoration-color:#000000;text-decoration-line:none;text-decoration-style:solid;text-indent:0;text-orientation:mixed;text-transform:none;white-space:normal"/>
  </g>
  <g transform="matrix(.72494 0 0 .72494 10.612 157.55)">
   <path d="m58.656 0-58.656 33.867v67.732l58.656 33.867 58.658-33.867v-67.732zm0 9.5234 50.41 29.103v58.213l-50.41 29.103-50.408-29.105v-58.211z" color="#000000" color-rendering="auto" dominant-baseline="auto" image-rendering="auto" shape-rendering="auto" solid-color="#000000" stop-color="#000000" style="font-feature-settings:normal;font-variant-alternates:normal;font-variant-caps:normal;font-variant-east-asian:normal;font-variant-ligatures:normal;font-variant-numeric:normal;font-variant-position:normal;font-variation-settings:normal;inline-size:0;isolation:auto;mix-blend-mode:normal;shape-margin:0;shape-padding:0;text-decoration-color:#000000;text-decoration-line:none;text-decoration-style:solid;text-indent:0;text-orientation:mixed;text-transform:none;white-space:normal"/>
   <path d="m58.656 7.4223 50.41 29.103v8.4667l-50.41 29.104-50.408-29.104v-8.4665z" stroke-linecap="round" stroke-linejoin="round" stroke-width="4.865"/>
   <path d="m58.656-1e-6 -58.656 33.867v7.8919l58.656 32.337 58.658-32.244v-7.9854zm2.9e-5 9.5234 50.026 27.222-50.026 28.884-50.026-28.884z" color="#000000" color-rendering="auto" dominant-baseline="auto" image-rendering="auto" shape-rendering="auto" solid-color="#000000" stop-color="#000000" style="font-feature-settings:normal;font-variant-alternates:normal;font-variant-caps:normal;font-variant-east-asian:normal;font-variant-ligatures:normal;font-variant-numeric:normal;font-variant-position:normal;font-variation-settings:normal;inline-size:0;isolation:auto;mix-blend-mode:normal;paint-order:normal;shape-margin:0;shape-padding:0;text-decoration-color:#000000;text-decoration-line:none;text-decoration-style:solid;text-indent:0;text-orientation:mixed;text-transform:none;white-space:normal"/>
   <rect x="54.556" y="74.097" width="8.2021" height="55.559" style="paint-order:normal"/>
   <path d="m58.656 8.4667-58.656 33.867v7.8919l58.656 32.337 58.658-32.244v-7.9854zm2.9e-5 9.5234 50.026 27.222-50.026 28.884-50.026-28.884z" color="#000000" color-rendering="auto" dominant-baseline="auto" image-rendering="auto" shape-rendering="auto" solid-color="#000000" stop-color="#000000" style="font-feature-settings:normal;font-variant-alternates:normal;font-variant-caps:normal;font-variant-east-asian:normal;font-variant-ligatures:normal;font-variant-numeric:normal;font-variant-position:normal;font-variation-settings:normal;inline-size:0;isolation:auto;mix-blend-mode:normal;paint-order:normal;shape-margin:0;shape-padding:0;text-decoration-color:#000000;text-decoration-line:none;text-decoration-style:solid;text-indent:0;text-orientation:mixed;text-transform:none;white-space:normal"/>
   <path d="m58.656 8.4667-58.656 33.867v7.8919l58.656 32.337 58.658-32.244v-7.9854zm2.9e-5 9.5234 50.026 27.222-50.026 28.884-50.026-28.884z" color="#000000" color-rendering="auto" dominant-baseline="auto" image-rendering="auto" shape-rendering="auto" solid-color="#000000" stop-color="#000000" style="font-feature-settings:normal;font-variant-alternates:normal;font-variant-caps:normal;font-variant-east-asian:normal;font-variant-ligatures:normal;font-variant-numeric:normal;font-variant-position:normal;font-variation-settings:normal;inline-size:0;isolation:auto;mix-blend-mode:normal;paint-order:normal;shape-margin:0;shape-padding:0;text-decoration-color:#000000;text-decoration-line:none;text-decoration-style:solid;text-indent:0;text-orientation:mixed;text-transform:none;white-space:normal"/>
  </g>
  <g transform="matrix(.18849 0 0 .18849 42.078 225.11)">
   <path d="m58.656 0-58.656 33.867v67.732l58.656 33.867 58.658-33.867v-67.732zm0 9.5234 50.41 29.103v58.213l-50.41 29.103-50.408-29.105v-58.211z" color="#000000" color-rendering="auto" dominant-baseline="auto" image-rendering="auto" shape-rendering="auto" solid-color="#000000" stop-color="#000000" style="font-feature-settings:normal;font-variant-alternates:normal;font-variant-caps:normal;font-variant-east-asian:normal;font-variant-ligatures:normal;font-variant-numeric:normal;font-variant-position:normal;font-variation-settings:normal;inline-size:0;isolation:auto;mix-blend-mode:normal;shape-margin:0;shape-padding:0;text-decoration-color:#000000;text-decoration-line:none;text-decoration-style:solid;text-indent:0;text-orientation:mixed;text-transform:none;white-space:normal"/>
   <path d="m58.656 7.4223 50.41 29.103v8.4667l-50.41 29.104-50.408-29.104v-8.4665z" stroke-linecap="round" stroke-linejoin="round" stroke-width="4.865"/>
   <path d="m58.656-1e-6 -58.656 33.867v7.8919l58.656 32.337 58.658-32.244v-7.9854zm2.9e-5 9.5234 50.026 27.222-50.026 28.884-50.026-28.884z" color="#000000" color-rendering="auto" dominant-baseline="auto" image-rendering="auto" shape-rendering="auto" solid-color="#000000" stop-color="#000000" style="font-feature-settings:normal;font-variant-alternates:normal;font-variant-caps:normal;font-variant-east-asian:normal;font-variant-ligatures:normal;font-variant-numeric:normal;font-variant-position:normal;font-variation-settings:normal;inline-size:0;isolation:auto;mix-blend-mode:normal;paint-order:normal;shape-margin:0;shape-padding:0;text-decoration-color:#000000;text-decoration-line:none;text-decoration-style:solid;text-indent:0;text-orientation:mixed;text-transform:none;white-space:normal"/>
   <rect x="54.556" y="74.097" width="8.2021" height="55.559" style="paint-order:normal"/>
   <path d="m58.656 8.4667-58.656 33.867v7.8919l58.656 32.337 58.658-32.244v-7.9854zm2.9e-5 9.5234 50.026 27.222-50.026 28.884-50.026-28.884z" color="#000000" color-rendering="auto" dominant-baseline="auto" image-rendering="auto" shape-rendering="auto" solid-color="#000000" stop-color="#000000" style="font-feature-settings:normal;font-variant-alternates:normal;font-variant-caps:normal;font-variant-east-asian:normal;font-variant-ligatures:normal;font-variant-numeric:normal;font-variant-position:normal;font-variation-settings:normal;inline-size:0;isolation:auto;mix-blend-mode:normal;paint-order:normal;shape-margin:0;shape-padding:0;text-decoration-color:#000000;text-decoration-line:none;text-decoration-style:solid;text-indent:0;text-orientation:mixed;text-transform:none;white-space:normal"/>
   <path d="m58.656 8.4667-58.656 33.867v7.8919l58.656 32.337 58.658-32.244v-7.9854zm2.9e-5 9.5234 50.026 27.222-50.026 28.884-50.026-28.884z" color="#000000" color-rendering="auto" dominant-baseline="auto" image-rendering="auto" shape-rendering="auto" solid-color="#000000" stop-color="#000000" style="font-feature-settings:normal;font-variant-alternates:normal;font-variant-caps:normal;font-variant-east-asian:normal;font-variant-ligatures:normal;font-variant-numeric:normal;font-variant-position:normal;font-variation-settings:normal;inline-size:0;isolation:auto;mix-blend-mode:normal;paint-order:normal;shape-margin:0;shape-padding:0;text-decoration-color:#000000;text-decoration-line:none;text-decoration-style:solid;text-indent:0;text-orientation:mixed;text-transform:none;white-space:normal"/>
  </g>
  <g transform="matrix(.18849 0 0 .18849 31.876 219.67)">
   <path d="m58.656 0-58.656 33.867v67.732l58.656 33.867 58.658-33.867v-67.732zm0 9.5234 50.41 29.103v58.213l-50.41 29.103-50.408-29.105v-58.211z" color="#000000" color-rendering="auto" dominant-baseline="auto" image-rendering="auto" shape-rendering="auto" solid-color="#000000" stop-color="#000000" style="font-feature-settings:normal;font-variant-alternates:normal;font-variant-caps:normal;font-variant-east-asian:normal;font-variant-ligatures:normal;font-variant-numeric:normal;font-variant-position:normal;font-variation-settings:normal;inline-size:0;isolation:auto;mix-blend-mode:normal;shape-margin:0;shape-padding:0;text-decoration-color:#000000;text-decoration-line:none;text-decoration-style:solid;text-indent:0;text-orientation:mixed;text-transform:none;white-space:normal"/>
   <path d="m58.656 7.4223 50.41 29.103v8.4667l-50.41 29.104-50.408-29.104v-8.4665z" stroke-linecap="round" stroke-linejoin="round" stroke-width="4.865"/>
   <path d="m58.656-1e-6 -58.656 33.867v7.8919l58.656 32.337 58.658-32.244v-7.9854zm2.9e-5 9.5234 50.026 27.222-50.026 28.884-50.026-28.884z" color="#000000" color-rendering="auto" dominant-baseline="auto" image-rendering="auto" shape-rendering="auto" solid-color="#000000" stop-color="#000000" style="font-feature-settings:normal;font-variant-alternates:normal;font-variant-caps:normal;font-variant-east-asian:normal;font-variant-ligatures:normal;font-variant-numeric:normal;font-variant-position:normal;font-variation-settings:normal;inline-size:0;isolation:auto;mix-blend-mode:normal;paint-order:normal;shape-margin:0;shape-padding:0;text-decoration-color:#000000;text-decoration-line:none;text-decoration-style:solid;text-indent:0;text-orientation:mixed;text-transform:none;white-space:normal"/>
   <rect x="54.556" y="74.097" width="8.2021" height="55.559" style="paint-order:normal"/>
   <path d="m58.656 8.4667-58.656 33.867v7.8919l58.656 32.337 58.658-32.244v-7.9854zm2.9e-5 9.5234 50.026 27.222-50.026 28.884-50.026-28.884z" color="#000000" color-rendering="auto" dominant-baseline="auto" image-rendering="auto" shape-rendering="auto" solid-color="#000000" stop-color="#000000" style="font-feature-settings:normal;font-variant-alternates:normal;font-variant-caps:normal;font-variant-east-asian:normal;font-variant-ligatures:normal;font-variant-numeric:normal;font-variant-position:normal;font-variation-settings:normal;inline-size:0;isolation:auto;mix-blend-mode:normal;paint-order:normal;shape-margin:0;shape-padding:0;text-decoration-color:#000000;text-decoration-line:none;text-decoration-style:solid;text-indent:0;text-orientation:mixed;text-transform:none;white-space:normal"/>
   <path d="m58.656 8.4667-58.656 33.867v7.8919l58.656 32.337 58.658-32.244v-7.9854zm2.9e-5 9.5234 50.026 27.222-50.026 28.884-50.026-28.884z" color="#000000" color-rendering="auto" dominant-baseline="auto" image-rendering="auto" shape-rendering="auto" solid-color="#000000" stop-color="#000000" style="font-feature-settings:normal;font-variant-alternates:normal;font-variant-caps:normal;font-variant-east-asian:normal;font-variant-ligatures:normal;font-variant-numeric:normal;font-variant-position:normal;font-variation-settings:normal;inline-size:0;isolation:auto;mix-blend-mode:normal;paint-order:normal;shape-margin:0;shape-padding:0;text-decoration-color:#000000;text-decoration-line:none;text-decoration-style:solid;text-indent:0;text-orientation:mixed;text-transform:none;white-space:normal"/>
  </g>
  <g transform="matrix(.18849 0 0 .18849 21.592 213.68)">
   <path d="m58.656 0-58.656 33.867v67.732l58.656 33.867 58.658-33.867v-67.732zm0 9.5234 50.41 29.103v58.213l-50.41 29.103-50.408-29.105v-58.211z" color="#000000" color-rendering="auto" dominant-baseline="auto" image-rendering="auto" shape-rendering="auto" solid-color="#000000" stop-color="#000000" style="font-feature-settings:normal;font-variant-alternates:normal;font-variant-caps:normal;font-variant-east-asian:normal;font-variant-ligatures:normal;font-variant-numeric:normal;font-variant-position:normal;font-variation-settings:normal;inline-size:0;isolation:auto;mix-blend-mode:normal;shape-margin:0;shape-padding:0;text-decoration-color:#000000;text-decoration-line:none;text-decoration-style:solid;text-indent:0;text-orientation:mixed;text-transform:none;white-space:normal"/>
   <path d="m58.656 7.4223 50.41 29.103v8.4667l-50.41 29.104-50.408-29.104v-8.4665z" stroke-linecap="round" stroke-linejoin="round" stroke-width="4.865"/>
   <path d="m58.656-1e-6 -58.656 33.867v7.8919l58.656 32.337 58.658-32.244v-7.9854zm2.9e-5 9.5234 50.026 27.222-50.026 28.884-50.026-28.884z" color="#000000" color-rendering="auto" dominant-baseline="auto" image-rendering="auto" shape-rendering="auto" solid-color="#000000" stop-color="#000000" style="font-feature-settings:normal;font-variant-alternates:normal;font-variant-caps:normal;font-variant-east-asian:normal;font-variant-ligatures:normal;font-variant-numeric:normal;font-variant-position:normal;font-variation-settings:normal;inline-size:0;isolation:auto;mix-blend-mode:normal;paint-order:normal;shape-margin:0;shape-padding:0;text-decoration-color:#000000;text-decoration-line:none;text-decoration-style:solid;text-indent:0;text-orientation:mixed;text-transform:none;white-space:normal"/>
   <rect x="54.556" y="74.097" width="8.2021" height="55.559" style="paint-order:normal"/>
   <path d="m58.656 8.4667-58.656 33.867v7.8919l58.656 32.337 58.658-32.244v-7.9854zm2.9e-5 9.5234 50.026 27.222-50.026 28.884-50.026-28.884z" color="#000000" color-rendering="auto" dominant-baseline="auto" image-rendering="auto" shape-rendering="auto" solid-color="#000000" stop-color="#000000" style="font-feature-settings:normal;font-variant-alternates:normal;font-variant-caps:normal;font-variant-east-asian:normal;font-variant-ligatures:normal;font-variant-numeric:normal;font-variant-position:normal;font-variation-settings:normal;inline-size:0;isolation:auto;mix-blend-mode:normal;paint-order:normal;shape-margin:0;shape-padding:0;text-decoration-color:#000000;text-decoration-line:none;text-decoration-style:solid;text-indent:0;text-orientation:mixed;text-transform:none;white-space:normal"/>
   <path d="m58.656 8.4667-58.656 33.867v7.8919l58.656 32.337 58.658-32.244v-7.9854zm2.9e-5 9.5234 50.026 27.222-50.026 28.884-50.026-28.884z" color="#000000" color-rendering="auto" dominant-baseline="auto" image-rendering="auto" shape-rendering="auto" solid-color="#000000" stop-color="#000000" style="font-feature-settings:normal;font-variant-alternates:normal;font-variant-caps:normal;font-variant-east-asian:normal;font-variant-ligatures:normal;font-variant-numeric:normal;font-variant-position:normal;font-variation-settings:normal;inline-size:0;isolation:auto;mix-blend-mode:normal;paint-order:normal;shape-margin:0;shape-padding:0;text-decoration-color:#000000;text-decoration-line:none;text-decoration-style:solid;text-indent:0;text-orientation:mixed;text-transform:none;white-space:normal"/>
  </g>
  <g transform="matrix(.18849 0 0 .18849 63.49 190.04)">
   <path d="m58.656 0-58.656 33.867v67.732l58.656 33.867 58.658-33.867v-67.732zm0 9.5234 50.41 29.103v58.213l-50.41 29.103-50.408-29.105v-58.211z" color="#000000" color-rendering="auto" dominant-baseline="auto" image-rendering="auto" shape-rendering="auto" solid-color="#000000" stop-color="#000000" style="font-feature-settings:normal;font-variant-alternates:normal;font-variant-caps:normal;font-variant-east-asian:normal;font-variant-ligatures:normal;font-variant-numeric:normal;font-variant-position:normal;font-variation-settings:normal;inline-size:0;isolation:auto;mix-blend-mode:normal;shape-margin:0;shape-padding:0;text-decoration-color:#000000;text-decoration-line:none;text-decoration-style:solid;text-indent:0;text-orientation:mixed;text-transform:none;white-space:normal"/>
   <path d="m58.656 7.4223 50.41 29.103v8.4667l-50.41 29.104-50.408-29.104v-8.4665z" stroke-linecap="round" stroke-linejoin="round" stroke-width="4.865"/>
   <path d="m58.656-1e-6 -58.656 33.867v7.8919l58.656 32.337 58.658-32.244v-7.9854zm2.9e-5 9.5234 50.026 27.222-50.026 28.884-50.026-28.884z" color="#000000" color-rendering="auto" dominant-baseline="auto" image-rendering="auto" shape-rendering="auto" solid-color="#000000" stop-color="#000000" style="font-feature-settings:normal;font-variant-alternates:normal;font-variant-caps:normal;font-variant-east-asian:normal;font-variant-ligatures:normal;font-variant-numeric:normal;font-variant-position:normal;font-variation-settings:normal;inline-size:0;isolation:auto;mix-blend-mode:normal;paint-order:normal;shape-margin:0;shape-padding:0;text-decoration-color:#000000;text-decoration-line:none;text-decoration-style:solid;text-indent:0;text-orientation:mixed;text-transform:none;white-space:normal"/>
   <rect x="54.556" y="74.097" width="8.2021" height="55.559" style="paint-order:normal"/>
   <path d="m58.656 8.4667-58.656 33.867v7.8919l58.656 32.337 58.658-32.244v-7.9854zm2.9e-5 9.5234 50.026 27.222-50.026 28.884-50.026-28.884z" color="#000000" color-rendering="auto" dominant-baseline="auto" image-rendering="auto" shape-rendering="auto" solid-color="#000000" stop-color="#000000" style="font-feature-settings:normal;font-variant-alternates:normal;font-variant-caps:normal;font-variant-east-asian:normal;font-variant-ligatures:normal;font-variant-numeric:normal;font-variant-position:normal;font-variation-settings:normal;inline-size:0;isolation:auto;mix-blend-mode:normal;paint-order:normal;shape-margin:0;shape-padding:0;text-decoration-color:#000000;text-decoration-line:none;text-decoration-style:solid;text-indent:0;text-orientation:mixed;text-transform:none;white-space:normal"/>
   <path d="m58.656 8.4667-58.656 33.867v7.8919l58.656 32.337 58.658-32.244v-7.9854zm2.9e-5 9.5234 50.026 27.222-50.026 28.884-50.026-28.884z" color="#000000" color-rendering="auto" dominant-baseline="auto" image-rendering="auto" shape-rendering="auto" solid-color="#000000" stop-color="#000000" style="font-feature-settings:normal;font-variant-alternates:normal;font-variant-caps:normal;font-variant-east-asian:normal;font-variant-ligatures:normal;font-variant-numeric:normal;font-variant-position:normal;font-variation-settings:normal;inline-size:0;isolation:auto;mix-blend-mode:normal;paint-order:normal;shape-margin:0;shape-padding:0;text-decoration-color:#000000;text-decoration-line:none;text-decoration-style:solid;text-indent:0;text-orientation:mixed;text-transform:none;white-space:normal"/>
  </g>
  <g transform="matrix(.18849 0 0 .18849 52.434 207.8)">
   <path d="m58.656 0-58.656 33.867v67.732l58.656 33.867 58.658-33.867v-67.732zm0 9.5234 50.41 29.103v58.213l-50.41 29.103-50.408-29.105v-58.211z" color="#000000" color-rendering="auto" dominant-baseline="auto" image-rendering="auto" shape-rendering="auto" solid-color="#000000" stop-color="#000000" style="font-feature-settings:normal;font-variant-alternates:normal;font-variant-caps:normal;font-variant-east-asian:normal;font-variant-ligatures:normal;font-variant-numeric:normal;font-variant-position:normal;font-variation-settings:normal;inline-size:0;isolation:auto;mix-blend-mode:normal;shape-margin:0;shape-padding:0;text-decoration-color:#000000;text-decoration-line:none;text-decoration-style:solid;text-indent:0;text-orientation:mixed;text-transform:none;white-space:normal"/>
   <path d="m58.656 7.4223 50.41 29.103v8.4667l-50.41 29.104-50.408-29.104v-8.4665z" stroke-linecap="round" stroke-linejoin="round" stroke-width="4.865"/>
   <path d="m58.656-1e-6 -58.656 33.867v7.8919l58.656 32.337 58.658-32.244v-7.9854zm2.9e-5 9.5234 50.026 27.222-50.026 28.884-50.026-28.884z" color="#000000" color-rendering="auto" dominant-baseline="auto" image-rendering="auto" shape-rendering="auto" solid-color="#000000" stop-color="#000000" style="font-feature-settings:normal;font-variant-alternates:normal;font-variant-caps:normal;font-variant-east-asian:normal;font-variant-ligatures:normal;font-variant-numeric:normal;font-variant-position:normal;font-variation-settings:normal;inline-size:0;isolation:auto;mix-blend-mode:normal;paint-order:normal;shape-margin:0;shape-padding:0;text-decoration-color:#000000;text-decoration-line:none;text-decoration-style:solid;text-indent:0;text-orientation:mixed;text-transform:none;white-space:normal"/>
   <rect x="54.556" y="74.097" width="8.2021" height="55.559" style="paint-order:normal"/>
   <path d="m58.656 8.4667-58.656 33.867v7.8919l58.656 32.337 58.658-32.244v-7.9854zm2.9e-5 9.5234 50.026 27.222-50.026 28.884-50.026-28.884z" color="#000000" color-rendering="auto" dominant-baseline="auto" image-rendering="auto" shape-rendering="auto" solid-color="#000000" stop-color="#000000" style="font-feature-settings:normal;font-variant-alternates:normal;font-variant-caps:normal;font-variant-east-asian:normal;font-variant-ligatures:normal;font-variant-numeric:normal;font-variant-position:normal;font-variation-settings:normal;inline-size:0;isolation:auto;mix-blend-mode:normal;paint-order:normal;shape-margin:0;shape-padding:0;text-decoration-color:#000000;text-decoration-line:none;text-decoration-style:solid;text-indent:0;text-orientation:mixed;text-transform:none;white-space:normal"/>
   <path d="m58.656 8.4667-58.656 33.867v7.8919l58.656 32.337 58.658-32.244v-7.9854zm2.9e-5 9.5234 50.026 27.222-50.026 28.884-50.026-28.884z" color="#000000" color-rendering="auto" dominant-baseline="auto" image-rendering="auto" shape-rendering="auto" solid-color="#000000" stop-color="#000000" style="font-feature-settings:normal;font-variant-alternates:normal;font-variant-caps:normal;font-variant-east-asian:normal;font-variant-ligatures:normal;font-variant-numeric:normal;font-variant-position:normal;font-variation-settings:normal;inline-size:0;isolation:auto;mix-blend-mode:normal;paint-order:normal;shape-margin:0;shape-padding:0;text-decoration-color:#000000;text-decoration-line:none;text-decoration-style:solid;text-indent:0;text-orientation:mixed;text-transform:none;white-space:normal"/>
  </g>
  <text x="194.10471" y="157.42134" font-family="'07LightNovelPOP'" font-size="63.985px" stroke-width=".13229" style="font-variant-caps:normal;font-variant-east-asian:normal;font-variant-ligatures:normal;font-variant-numeric:normal;line-height:1.05" xml:space="preserve"><tspan x="194.10471" y="157.42134" style="font-variant-caps:normal;font-variant-east-asian:normal;font-variant-ligatures:normal;font-variant-numeric:normal">Fractal</tspan><tspan x="194.10471" y="224.60527" style="font-variant-caps:normal;font-variant-east-asian:normal;font-variant-ligatures:normal;font-variant-numeric:normal">Launcher</tspan></text>
  <g transform="matrix(.72585 0 0 .72585 52.991 84.12)">
   <path d="m58.656 0-58.656 33.867v67.732l58.656 33.867 58.658-33.867v-67.732zm0 9.5234 50.41 29.103v58.213l-50.41 29.103-50.408-29.105v-58.211z" color="#000000" color-rendering="auto" dominant-baseline="auto" image-rendering="auto" shape-rendering="auto" solid-color="#000000" stop-color="#000000" style="font-feature-settings:normal;font-variant-alternates:normal;font-variant-caps:normal;font-variant-east-asian:normal;font-variant-ligatures:normal;font-variant-numeric:normal;font-variant-position:normal;font-variation-settings:normal;inline-size:0;isolation:auto;mix-blend-mode:normal;shape-margin:0;shape-padding:0;text-decoration-color:#000000;text-decoration-line:none;text-decoration-style:solid;text-indent:0;text-orientation:mixed;text-transform:none;white-space:normal"/>
   <path d="m103.94 64.577-5.7864 3.1807v-5.5996l5.7864-3.1808z" stroke="#a1a6ea" stroke-linecap="square" stroke-width=".36108"/>
   <path d="m58.656-1e-6 -58.656 33.867v8.4667l58.656 31.763 58.658-31.763v-8.4667zm2.9e-5 9.5234 50.026 27.222-50.026 28.884-50.026-28.884z" color="#000000" color-rendering="auto" dominant-baseline="auto" image-rendering="auto" shape-rendering="auto" solid-color="#000000" stop-color="#000000" style="font-feature-settings:normal;font-variant-alternates:normal;font-variant-caps:normal;font-variant-east-asian:normal;font-variant-ligatures:normal;font-variant-numeric:normal;font-variant-position:normal;font-variation-settings:normal;inline-size:0;isolation:auto;mix-blend-mode:normal;paint-order:normal;shape-margin:0;shape-padding:0;text-decoration-color:#000000;text-decoration-line:none;text-decoration-style:solid;text-indent:0;text-orientation:mixed;text-transform:none;white-space:normal"/>
   <rect x="54.424" y="71.242" width="8.4667" height="55.559" style="paint-order:normal"/>
   <g stroke="#a1a6ea" stroke-linecap="square" stroke-width=".36108">
    <path d="m98.149 67.758-5.7864 3.1807v-5.5996l5.7864-3.1808z"/>
    <path d="m98.149 73.357-5.7864 3.1807v-5.5996l5.7864-3.1808z"/>
    <path d="m103.94 70.177-5.7864 3.1807v-5.5996l5.7864-3.1808z"/>
    <path d="m92.363 82.138-5.7864 3.1807v-5.5996l5.7864-3.1808z"/>
    <path d="m86.576 85.319-5.7864 3.1807v-5.5996l5.7864-3.1808z"/>
    <path d="m92.363 87.737-5.7864 3.1807v-5.5996l5.7864-3.1808z"/>
    <path d="m86.576 90.918-5.7864 3.1807v-5.5996l5.7864-3.1808z"/>
    <path d="m80.79 94.099-5.7864 3.1807v-5.5996l5.7864-3.1808z"/>
    <path d="m80.79 99.699-5.7864 3.1807v-5.5996l5.7864-3.1808z"/>
    <path d="m98.149 90.156-5.7864 3.1807v-5.5996l5.7864-3.1808z"/>
    <path d="m98.149 84.557-5.7864 3.1807v-5.5996l5.7864-3.1808z"/>
    <path d="m80.79 82.9-5.7864 3.1807v-5.5996l5.7864-3.1808z"/>
    <path d="m80.79 77.3-5.7864 3.1807v-5.5996l5.7864-3.1808z"/>
    <path d="m75.003 80.481-5.7864 3.1807v-5.5996l5.7864-3.1808z"/>
    <path d="m75.003 86.08-5.7864 3.1807v-5.5996l5.7864-3.1808z"/>
    <path d="m86.576 96.518-5.7864 3.1808v-5.5996l5.7864-3.1808z"/>
    <path d="m92.363 93.337-5.7864 3.1807v-5.5996l5.7864-3.1808z"/>
    <path d="m80.79 105.3-5.7864 3.1808v-5.5996l5.7864-3.1808z"/>
    <path d="m98.149 95.756-5.7864 3.1807v-5.5996l5.7864-3.1808z"/>
   </g>
  </g>
 </g>
</svg>
